# xmcd
# Track frame offsets:
# 150
# 17090
# 29562
# 39554
# 51402
# 65921
# 80083
# 92058
# 103759
# 113346
# 126583
# 146751
#
# Disc length: 2139 seconds
# Revision: 0
# Processed by: cddbd v1.4PL0 Copyright (c) Steve Scherf et al.
# Submitted via: VisiTrax 2.9.5.180 - For more info visit www.synapsa.com
#
DISCID=b108590c
DTITLE=Tommy Cash - Let An Old Racehorse Run
DYEAR=1900
DGENRE=
TTITLE0=Let An Old Racehorse Run
TTITLE1=Angel In Disguis
TTITLE2=We Got Love...with Jeannie C. Riley
TTITLE3=I Owe The World To You
TTITLE4=Sonny
TTITLE5=Jezeblle
TTITLE6=The End Of Me
TTITLE7=Winners...with Jeannie c. Riley
TTITLE8=Keepin´ Up The Good Love
TTITLE9=Molly
TTITLE10=Gimme Things
TTITLE11=Lifeline
EXTD=Playback Records
EXTT0=
EXTT1=
EXTT2=
EXTT3=
EXTT4=
EXTT5=
EXTT6=
EXTT7=
EXTT8=
EXTT9=
EXTT10=
EXTT11=
PLAYORDER=
